# xmcd
#
# Track frame offsets: 
#        150
#        17910
#        36642
#        58420
#        78967
#        102565
#        119852
#        140632
#
# Disc length: 2176 seconds
#
# Revision: 1
# Processed by: cddbd v1.5.2PL0 Copyright (c) Steve Scherf et al.
# Submitted via: ExactAudioCopy v0.99pb4
#
DISCID=7e087e08
DTITLE=Active Force - Active Force
DYEAR=1983
DGENRE=Funk
TTITLE0=Keep On Rockin'
TTITLE1=Cold Blooded Lover
TTITLE2=I Never Thought I'd Love Again
TTITLE3=Coo Coo Kachu
TTITLE4=Give Me Your Love
TTITLE5=Bottom Line
TTITLE6=Rise Up
TTITLE7=My Sunshine
EXTD=
EXTT0=
EXTT1=
EXTT2=
EXTT3=
EXTT4=
EXTT5=
EXTT6=
EXTT7=
PLAYORDER=
